<svg width="14" height="14" viewBox="0 0 14 14" fill="none" xmlns="http://www.w3.org/2000/svg">
<path fill-rule="evenodd" clip-rule="evenodd" d="M1.18718 0.812816C1.48008 0.519923 1.95495 0.519923 2.24784 0.812816L7.02082 5.58579L11.7938 0.812816C12.0867 0.519923 12.5616 0.519922 12.8544 0.812816C13.1473 1.10571 13.1473 1.58058 12.8544 1.87348L8.08148 6.64645L13.208 11.773C13.5009 12.0659 13.5009 12.5407 13.208 12.8336C12.9151 13.1265 12.4402 13.1265 12.1473 12.8336L7.02081 7.70711L1.89429 12.8336C1.6014 13.1265 1.12652 13.1265 0.833631 12.8336C0.540738 12.5407 0.540738 12.0659 0.833631 11.773L5.96015 6.64645L1.18718 1.87348C0.894291 1.58058 0.894291 1.10571 1.18718 0.812816Z" fill="#222222"/>
</svg>
