<svg width="18" height="18" viewBox="0 0 18 18" fill="none" xmlns="http://www.w3.org/2000/svg">
<path fill-rule="evenodd" clip-rule="evenodd" d="M12.9314 5.0252C11.6291 1.96091 8.0893 0.532536 5.02502 1.83483C1.96073 3.13712 0.532353 6.67692 1.83464 9.74121C3.13693 12.8055 6.67674 14.2339 9.74103 12.9316C10.4556 12.6279 11.0812 12.2026 11.6039 11.69C11.617 11.6743 11.6308 11.6591 11.6455 11.6444C11.66 11.6299 11.6751 11.6162 11.6905 11.6033C13.3431 9.91509 13.9131 7.33504 12.9314 5.0252ZM13.0601 12.1028C14.7682 10.0447 15.2943 7.1273 14.1761 4.49621C12.5817 0.744484 8.24775 -1.00434 4.49602 0.590108C0.744301 2.18455 -1.00452 6.51848 0.589925 10.2702C2.18437 14.0219 6.51829 15.7707 10.27 14.1763C10.9498 13.8874 11.5638 13.5086 12.1041 13.0595L16.8456 17.8017C17.1096 18.0658 17.5378 18.0659 17.8019 17.8018C18.066 17.5377 18.066 17.1096 17.802 16.8455L13.0601 12.1028Z" fill="#222222"/>
</svg>
